<svg width="22" height="25" viewBox="0 0 22 25" fill="none" xmlns="http://www.w3.org/2000/svg">
<path d="M0.300781 21.4266L4.58477 16.6597C4.77813 16.4445 5.04024 16.325 5.31524 16.325H6.01562C4.82969 14.6372 4.125 12.5144 4.125 10.205C4.125 4.71135 8.12539 0.26001 13.0625 0.26001C17.9996 0.26001 22 4.71135 22 10.205C22 15.6987 17.9996 20.15 13.0625 20.15C10.9871 20.15 9.0793 19.3659 7.5625 18.0463V18.8256C7.5625 19.1316 7.45508 19.4233 7.26172 19.6384L2.97773 24.4053C2.57383 24.8548 1.9207 24.8548 1.52109 24.4053L0.305079 23.0522C-0.0988274 22.6028 -0.0988274 21.876 0.300781 21.4266ZM13.0625 16.325C16.1004 16.325 18.5625 13.5901 18.5625 10.205C18.5625 6.82467 16.1047 4.08501 13.0625 4.08501C10.0246 4.08501 7.5625 6.81988 7.5625 10.205C7.5625 13.5854 10.0203 16.325 13.0625 16.325Z" fill="#FFB703"/>
</svg>
