<svg width="26" height="25" viewBox="0 0 26 25" fill="none" xmlns="http://www.w3.org/2000/svg">
<path d="M12.5089 25C5.59875 25 0 19.4052 0 12.5C0 5.59476 5.59875 0 12.5089 0C19.4191 0 25.0178 5.59476 25.0178 12.5C25.0178 19.4052 19.4191 25 12.5089 25ZM18.3598 10.2823H12.5089V6.70867C12.5089 6.16936 11.8532 5.89718 11.4749 6.28024L5.70971 12.0716C5.47265 12.3085 5.47265 12.6865 5.70971 12.9234L11.4749 18.7147C11.8582 19.0978 12.5089 18.8256 12.5089 18.2863V14.7177H18.3598C18.6927 14.7177 18.9651 14.4456 18.9651 14.1129V10.8871C18.9651 10.5544 18.6927 10.2823 18.3598 10.2823Z" fill="#219EBC"/>
</svg>
