<svg width="352" height="237" viewBox="0 0 352 237" fill="none" xmlns="http://www.w3.org/2000/svg">
<path opacity="0.2" d="M27.6409 214.716C27.6409 214.716 -32.9168 106.417 25.2379 57.2338C85.3149 6.12818 134.498 44.5775 157.247 42.0142C195.376 37.6887 230.782 -22.7088 311.045 9.3323C400.599 44.8979 315.37 214.716 315.37 214.716H27.6409Z" fill="#FFB703"/>
<path d="M173.428 236.824C264.385 236.824 338.119 229.293 338.119 220.003C338.119 210.712 264.385 203.181 173.428 203.181C82.4716 203.181 8.73682 210.712 8.73682 220.003C8.73682 229.293 82.4716 236.824 173.428 236.824Z" fill="#8ECAE6"/>
<path opacity="0.1" d="M281.567 218.24C281.567 224.328 233.185 229.294 173.268 229.294C113.351 229.294 64.969 224.328 64.969 218.24C64.969 212.152 113.351 207.186 173.268 207.186C233.185 207.186 281.567 212.152 281.567 218.24Z" fill="#023047"/>
<path d="M60.4832 198.215C60.4832 198.215 18.5093 111.865 50.7107 87.6736C82.912 63.4825 250.327 36.0874 289.577 74.3765C314.569 98.7278 282.208 198.376 282.208 198.376H60.4832V198.215Z" fill="#219EBC"/>
<path opacity="0.1" d="M40.2974 137.658C40.2974 137.658 68.3333 129.968 79.8681 135.736C91.4029 141.503 89.3203 169.539 89.3203 169.539C89.3203 169.539 134.658 154.64 170.544 170.34C170.544 170.34 205.149 154.64 247.283 168.097C247.283 168.097 244.88 136.537 258.177 130.128C271.474 123.72 297.427 130.128 297.427 130.128L283.65 198.216H53.4342L40.2974 137.658Z" fill="#023047"/>
<path d="M31.9667 147.911C34.3698 132.211 72.3385 137.978 76.9844 142.143C81.4702 146.309 89.8009 201.42 85.1549 201.42C80.6692 201.42 52.6332 201.42 50.0699 201.42C47.3464 201.42 29.2432 164.732 31.9667 147.911Z" fill="#219EBC"/>
<path d="M256.094 201.42C256.094 201.42 281.567 201.42 287.014 201.42C292.461 201.42 314.089 148.552 304.476 136.056C296.626 125.963 265.066 130.288 259.459 136.376C250.807 145.988 249.686 188.443 256.094 201.42Z" fill="#219EBC"/>
<path d="M76.6641 198.215H170.545C170.545 198.215 171.025 177.869 157.087 173.544C143.149 169.218 100.054 169.058 90.2815 173.544C80.509 178.03 76.6641 198.215 76.6641 198.215Z" fill="#219EBC"/>
<path d="M170.544 198.215H264.425C264.425 198.215 264.906 177.869 250.968 173.544C237.03 169.218 193.934 169.058 184.162 173.544C174.389 178.19 170.544 198.215 170.544 198.215Z" fill="#219EBC"/>
<path d="M59.6821 201.419H72.9792C72.9792 201.419 72.9792 220.003 66.571 220.003C60.1627 220.003 59.6821 201.419 59.6821 201.419Z" fill="#FFB703"/>
<path d="M266.187 201.419H279.484C279.484 201.419 279.484 220.003 273.076 220.003C266.828 220.003 266.187 201.419 266.187 201.419Z" fill="#FFB703"/>
<g opacity="0.1">
<path opacity="0.1" d="M83.3928 114.908C83.553 113.787 83.8734 112.665 84.5143 111.704C84.9949 110.743 85.6357 109.782 86.4367 108.981C87.8786 107.378 89.9613 106.097 92.0439 105.616C91.2429 106.417 90.4419 107.058 89.801 107.859C89 108.66 88.3592 109.301 87.7184 110.102C86.2765 111.704 84.8347 113.306 83.3928 114.908Z" fill="#023047"/>
<path opacity="0.1" d="M82.752 105.937C83.8734 106.097 84.9948 106.418 85.9561 107.058C86.9173 107.539 87.8785 108.18 88.6796 108.981C90.2816 110.423 91.5633 112.505 92.0439 114.588C91.2428 113.787 90.602 112.986 89.801 112.345C89 111.544 88.3591 110.903 87.5581 110.263C85.7959 108.821 84.354 107.539 82.752 105.937Z" fill="#023047"/>
</g>
<g opacity="0.1">
<path opacity="0.1" d="M103.739 139.26C103.899 138.138 104.22 137.017 104.86 136.056C105.341 135.094 105.982 134.133 106.783 133.332C108.225 131.73 110.307 130.448 112.39 129.968C111.589 130.769 110.788 131.41 110.147 132.211C109.346 133.012 108.705 133.653 108.065 134.454C106.623 136.056 105.341 137.658 103.739 139.26Z" fill="#023047"/>
<path opacity="0.1" d="M103.098 130.289C104.22 130.449 105.341 130.769 106.302 131.41C107.263 131.891 108.225 132.531 109.026 133.332C110.628 134.774 111.909 136.857 112.39 138.94C111.589 138.139 110.948 137.338 110.147 136.697C109.346 135.896 108.705 135.255 107.904 134.614C106.302 133.172 104.7 131.891 103.098 130.289Z" fill="#023047"/>
</g>
<g opacity="0.1">
<path opacity="0.1" d="M144.111 139.26C144.271 138.138 144.591 137.017 145.232 136.056C145.713 135.094 146.354 134.133 147.155 133.332C148.597 131.73 150.679 130.448 152.762 129.968C151.961 130.769 151.16 131.41 150.519 132.211C149.718 133.012 149.077 133.653 148.436 134.454C146.995 136.056 145.713 137.658 144.111 139.26Z" fill="#023047"/>
<path opacity="0.1" d="M143.47 130.289C144.591 130.449 145.713 130.769 146.674 131.41C147.635 131.891 148.597 132.531 149.398 133.332C151 134.774 152.281 136.857 152.762 138.94C151.961 138.139 151.32 137.338 150.519 136.697C149.718 135.896 149.077 135.255 148.276 134.614C146.674 133.172 145.072 131.891 143.47 130.289Z" fill="#023047"/>
</g>
<g opacity="0.1">
<path opacity="0.1" d="M184.643 139.26C184.803 138.138 185.123 137.017 185.764 136.056C186.245 135.094 186.886 134.133 187.687 133.332C189.129 131.73 191.211 130.448 193.294 129.968C192.493 130.769 191.692 131.41 191.051 132.211C190.25 133.012 189.609 133.653 188.968 134.454C187.366 136.056 186.085 137.658 184.643 139.26Z" fill="#023047"/>
<path opacity="0.1" d="M184.002 130.289C185.123 130.449 186.245 130.769 187.206 131.41C188.167 131.891 189.129 132.531 189.93 133.332C191.532 134.774 192.813 136.857 193.294 138.94C192.493 138.139 191.852 137.338 191.051 136.697C190.25 135.896 189.609 135.255 188.808 134.614C187.046 133.172 185.604 131.891 184.002 130.289Z" fill="#023047"/>
</g>
<g opacity="0.1">
<path opacity="0.1" d="M225.015 139.26C225.175 138.138 225.495 137.017 226.136 136.056C226.617 135.094 227.258 134.133 228.059 133.332C229.5 131.73 231.583 130.448 233.666 129.968C232.865 130.769 232.064 131.41 231.423 132.211C230.622 133.012 229.981 133.653 229.34 134.454C227.898 136.056 226.617 137.658 225.015 139.26Z" fill="#023047"/>
<path opacity="0.1" d="M224.374 130.289C225.495 130.449 226.617 130.769 227.578 131.41C228.539 131.891 229.5 132.531 230.301 133.332C231.903 134.774 233.185 136.857 233.666 138.94C232.865 138.139 232.224 137.338 231.423 136.697C230.622 135.896 229.981 135.255 229.18 134.614C227.578 133.172 225.976 131.891 224.374 130.289Z" fill="#023047"/>
</g>
<g opacity="0.1">
<path opacity="0.1" d="M124.085 114.908C124.245 113.787 124.566 112.665 125.207 111.704C125.687 110.743 126.328 109.782 127.129 108.981C128.571 107.378 130.654 106.097 132.736 105.616C131.935 106.417 131.134 107.058 130.493 107.859C129.692 108.66 129.052 109.301 128.411 110.102C126.809 111.704 125.527 113.306 124.085 114.908Z" fill="#023047"/>
<path opacity="0.1" d="M123.444 105.937C124.566 106.097 125.687 106.418 126.648 107.058C127.61 107.539 128.571 108.18 129.372 108.981C130.974 110.423 132.256 112.505 132.736 114.588C131.935 113.787 131.294 112.986 130.493 112.345C129.692 111.544 129.052 110.903 128.251 110.263C126.488 108.821 125.046 107.539 123.444 105.937Z" fill="#023047"/>
</g>
<g opacity="0.1">
<path opacity="0.1" d="M164.777 114.908C164.937 113.787 165.258 112.665 165.899 111.704C166.379 110.743 167.02 109.782 167.821 108.981C169.263 107.378 171.346 106.097 173.428 105.616C172.627 106.417 171.826 107.058 171.185 107.859C170.384 108.66 169.743 109.301 169.103 110.102C167.501 111.704 166.219 113.306 164.777 114.908Z" fill="#023047"/>
<path opacity="0.1" d="M163.976 105.937C165.098 106.097 166.219 106.418 167.18 107.058C168.141 107.539 169.103 108.18 169.904 108.981C171.506 110.423 172.787 112.505 173.268 114.588C172.467 113.787 171.826 112.986 171.025 112.345C170.224 111.544 169.583 110.903 168.782 110.263C167.18 108.821 165.578 107.539 163.976 105.937Z" fill="#023047"/>
</g>
<g opacity="0.1">
<path opacity="0.1" d="M205.309 114.908C205.47 113.787 205.79 112.665 206.431 111.704C206.911 110.743 207.552 109.782 208.353 108.981C209.795 107.378 211.878 106.097 213.96 105.616C213.159 106.417 212.358 107.058 211.718 107.859C210.917 108.66 210.276 109.301 209.635 110.102C208.193 111.704 206.911 113.306 205.309 114.908Z" fill="#023047"/>
<path opacity="0.1" d="M204.668 105.937C205.79 106.097 206.911 106.418 207.873 107.058C208.834 107.539 209.795 108.18 210.596 108.981C212.198 110.423 213.48 112.505 213.96 114.588C213.159 113.787 212.519 112.986 211.717 112.345C210.916 111.544 210.276 110.903 209.475 110.263C207.873 108.821 206.271 107.539 204.668 105.937Z" fill="#023047"/>
</g>
<g opacity="0.1">
<path opacity="0.1" d="M246.001 114.908C246.162 113.787 246.482 112.665 247.123 111.704C247.604 110.743 248.244 109.782 249.045 108.981C250.487 107.378 252.57 106.097 254.653 105.616C253.852 106.417 253.051 107.058 252.41 107.859C251.609 108.66 250.968 109.301 250.327 110.102C248.885 111.704 247.604 113.306 246.001 114.908Z" fill="#023047"/>
<path opacity="0.1" d="M245.361 105.937C246.482 106.097 247.603 106.418 248.565 107.058C249.526 107.539 250.487 108.18 251.288 108.981C252.89 110.423 254.172 112.505 254.653 114.588C253.851 113.787 253.211 112.986 252.41 112.345C251.609 111.544 250.968 110.903 250.167 110.263C248.565 108.821 246.963 107.539 245.361 105.937Z" fill="#023047"/>
</g>
<path d="M106.302 72.2938C111.876 72.2938 116.395 67.775 116.395 62.2009C116.395 56.6267 111.876 52.1079 106.302 52.1079C100.728 52.1079 96.209 56.6267 96.209 62.2009C96.209 67.775 100.728 72.2938 106.302 72.2938Z" fill="#8ECAE6"/>
<path d="M113.511 62.2005C113.511 66.2056 110.307 69.4097 106.302 69.4097C102.297 69.4097 99.0925 66.2056 99.0925 62.2005C99.0925 58.1953 102.297 54.9912 106.302 54.9912C110.147 54.9912 113.511 58.1953 113.511 62.2005Z" fill="#023047"/>
<path d="M242.477 159.766H211.878V155.761L207.552 151.916L212.679 146.309L218.286 151.275C218.286 151.275 230.942 153.838 237.671 155.761C239.273 156.241 240.554 156.562 241.195 156.882C244.079 158.324 242.477 159.766 242.477 159.766Z" fill="#FFDAAC"/>
<path d="M242.477 159.765H211.878V155.76C211.878 155.76 237.35 157.843 238.632 157.362C239.914 156.882 237.991 155.76 237.511 155.6C239.113 156.081 240.394 156.401 241.035 156.722C244.079 158.324 242.477 159.765 242.477 159.765Z" fill="#FFB703"/>
<path d="M243.919 164.893H211.557V160.727L206.911 156.562L212.358 150.634L218.286 155.921C218.286 155.921 231.743 158.645 238.792 160.567C240.554 161.048 241.836 161.528 242.477 161.849C245.681 163.451 243.919 164.893 243.919 164.893Z" fill="#FFDAAC"/>
<path d="M243.919 164.892H211.557V160.727C211.557 160.727 238.472 162.97 239.914 162.489C241.195 162.009 239.112 160.887 238.792 160.727C240.554 161.208 241.836 161.688 242.477 162.009C245.681 163.451 243.919 164.892 243.919 164.892Z" fill="#FFB703"/>
<path d="M94.9275 159.286C94.9275 159.286 99.253 166.174 106.142 166.174C113.031 166.174 123.604 166.174 127.129 166.174C130.814 166.174 169.904 135.896 173.909 135.896C177.914 135.735 207.872 154.319 207.872 154.319L214.441 147.11C214.441 147.11 184.643 121.637 172.467 121.637C160.291 121.637 128.41 138.299 128.41 138.299C128.41 138.299 97.4908 150.955 94.9275 159.286Z" fill="#023047"/>
<path d="M94.9275 163.451C94.9275 163.451 99.253 170.339 106.142 170.339C113.031 170.339 123.764 170.339 128.731 169.699C132.255 169.218 169.904 140.061 173.909 139.9C177.914 139.74 207.872 158.324 207.872 158.324L214.441 151.115C214.441 151.115 184.643 125.642 172.467 125.642C160.291 125.642 128.41 142.303 128.41 142.303C128.41 142.303 97.4908 154.96 94.9275 163.451Z" fill="#023047"/>
<path d="M98.9326 37.3688C92.0438 28.2371 67.0517 19.1053 52.473 33.2034C37.8943 47.3015 46.0648 67.0068 43.0209 73.7354C39.977 80.4641 26.5197 88.6345 25.238 101.932C23.9564 115.229 30.2044 132.531 53.4342 137.177C76.8242 141.663 88.8397 128.045 92.6846 115.389C96.6897 102.252 90.6019 96.004 91.8836 91.0376C93.1652 86.0713 115.754 59.6373 98.9326 37.3688Z" fill="#FFB703"/>
<path d="M134.819 118.112L134.498 119.073C133.377 121.476 130.493 122.437 128.09 121.155L93.1652 103.853C90.7621 102.732 89.8009 99.8481 91.0825 97.445L91.5631 96.4838C92.6845 94.0807 95.5682 93.1195 97.9713 94.4011L132.736 111.703C135.139 112.825 136.1 115.708 134.819 118.112Z" fill="#8ECAE6"/>
<path d="M149.558 84.3085L150.519 84.7891C152.762 86.2309 153.403 89.1146 151.961 91.3575L134.338 119.233C132.896 121.476 130.013 122.117 127.77 120.675L126.808 120.195C124.566 118.753 123.925 115.869 125.367 113.626L142.829 85.7503C144.271 83.5074 147.315 82.8666 149.558 84.3085Z" fill="#8ECAE6"/>
<g opacity="0.1">
<path opacity="0.1" d="M134.979 118.113L134.498 118.914C133.377 121.317 130.493 122.278 128.09 121.157L93.1652 104.015C90.7621 102.893 89.8009 100.009 90.9223 97.6064L91.4029 96.6452C92.5244 94.2421 95.4081 93.2808 97.8111 94.4023L132.736 111.544C135.139 112.826 136.1 115.71 134.979 118.113Z" fill="#023047"/>
<path opacity="0.1" d="M149.397 84.1492L150.359 84.6298C152.601 86.0717 153.242 88.9554 151.8 91.1983L134.338 119.234C132.896 121.477 130.012 122.118 127.77 120.676L126.969 120.195C124.726 118.754 124.085 115.87 125.527 113.627L142.989 85.7513C144.271 83.3482 147.154 82.7074 149.397 84.1492Z" fill="#023047"/>
</g>
<path d="M87.3978 93.1202C99.253 90.3967 106.462 101.611 128.571 142.143C128.571 142.143 120.56 147.27 113.992 156.401C110.147 161.688 95.2479 167.936 87.3978 164.572C87.3978 164.412 63.2068 98.7274 87.3978 93.1202Z" fill="#8ECAE6"/>
<path d="M80.0283 85.9111C80.0283 85.9111 82.7518 96.3244 84.6743 97.9265C86.2763 99.2081 90.2815 98.8877 90.6019 96.3244C90.9223 93.7612 89.16 84.4692 89.16 84.4692L80.0283 85.9111Z" fill="#FFDAAC"/>
<path d="M109.346 73.736C108.865 75.1778 108.225 76.9401 107.103 78.8625C99.5735 91.8392 69.6151 96.1647 57.7599 78.0615C43.3414 55.9532 56.1578 31.2815 77.9458 28.558C92.0439 26.7957 110.147 35.607 108.705 57.8756C108.545 60.7593 108.705 63.0022 109.026 64.9247C109.666 68.1288 110.307 70.3717 109.346 73.736Z" fill="#FFDAAC"/>
<path d="M97.6507 62.2002C98.9324 61.8798 99.8936 65.4044 99.5732 65.885C99.2528 66.8462 96.8497 67.1666 96.2089 66.2054C95.7283 65.7248 96.6895 62.5207 97.6507 62.2002Z" fill="#F8BD8A"/>
<path d="M85.3149 65.4047C85.1547 67.0067 83.7129 68.2884 82.1108 68.1282C80.5088 67.968 79.2271 66.5261 79.3873 64.9241C79.5475 63.322 80.9894 62.0404 82.5914 62.2006C84.1935 62.2006 85.4751 63.6424 85.3149 65.4047Z" fill="#023047"/>
<path d="M107.584 63.0014C107.423 64.4432 106.302 65.5647 104.86 65.5647C103.418 65.4045 102.457 64.1228 102.617 62.681C102.777 61.2391 103.899 60.1177 105.341 60.1177C106.622 60.2779 107.744 61.5595 107.584 63.0014Z" fill="#023047"/>
<path d="M97.0102 73.4145C94.6071 74.536 91.2428 73.5747 90.1214 71.1717C89.801 70.3706 88.5193 71.0115 88.9999 71.6523C90.602 74.536 94.6071 75.9778 97.651 74.536C98.2918 74.2156 97.651 73.0941 97.0102 73.4145Z" fill="#023047"/>
<path d="M83.0722 55.4721C80.1885 54.8313 76.8242 56.7538 75.8629 59.6375C75.5425 60.7589 77.1446 61.2395 77.465 60.2783C78.1058 58.3558 80.5089 56.7538 82.4314 57.2344C83.713 57.3946 84.1936 55.6323 83.0722 55.4721Z" fill="#FFB703"/>
<path d="M103.098 53.5493C105.661 52.588 108.705 54.0299 109.826 56.2727C110.307 57.234 108.865 57.8748 108.385 56.9136C107.584 55.3115 105.341 54.1901 103.739 54.8309C102.777 55.3115 102.137 54.0299 103.098 53.5493Z" fill="#FFB703"/>
<path d="M80.9895 74.2158C80.8293 77.0995 78.266 79.1822 75.5425 78.8618C72.6588 78.7016 70.5761 76.1383 70.8965 73.4148C71.217 70.6913 73.62 68.4484 76.3435 68.7688C79.2272 68.9291 81.3099 71.3321 80.9895 74.2158Z" fill="#F8BD8A"/>
<path d="M109.346 73.7351C107.423 72.9341 106.302 71.0116 106.462 68.929C106.622 67.1667 107.744 65.7249 109.186 64.9238C109.666 68.1279 110.307 70.3708 109.346 73.7351Z" fill="#F8BD8A"/>
<path d="M76.3435 64.1228C76.6639 64.7637 77.3047 65.0841 77.7854 64.9239C78.266 64.9239 78.5864 64.4433 79.067 63.9626C79.5476 63.482 80.0282 63.0014 80.5088 62.5208C81.1497 62.2004 81.7905 61.88 82.5915 62.0402C81.9507 62.2004 81.4701 62.5208 80.9895 63.0014C80.5088 63.482 80.1884 63.9626 79.7078 64.4433C79.5476 64.7637 79.2272 64.9239 78.9068 65.0841C78.5864 65.2443 78.1058 65.4045 77.7854 65.4045C76.9843 65.5647 76.3435 64.7637 76.3435 64.1228Z" fill="#023047"/>
<path d="M110.307 62.2004C110.307 62.8413 109.987 63.6423 109.025 63.6423C108.705 63.6423 108.224 63.4821 107.904 63.3219C107.584 63.1617 107.423 62.8413 107.263 62.681L106.142 61.2392C105.821 60.7586 105.341 60.4382 104.86 60.278C105.501 60.1178 106.142 60.4382 106.622 60.7586C107.103 61.079 107.584 61.5596 107.904 62.0402C108.224 62.5208 108.545 63.0015 109.025 63.0015C109.666 63.1617 110.147 62.681 110.307 62.2004Z" fill="#023047"/>
<path d="M58.5607 73.0951C62.4057 73.0951 68.0129 43.1367 68.0129 43.1367C68.0129 43.1367 66.7312 51.948 68.0129 52.749C69.2945 53.7102 87.7181 51.6276 95.0876 40.0928C95.0876 40.0928 92.0437 48.5837 94.1264 48.9041C96.3692 49.0643 102.938 40.0928 102.938 40.0928C102.938 40.0928 105.982 50.3459 108.545 51.4674C111.268 52.9092 108.064 27.4365 80.0283 27.4365C51.9923 27.4365 50.0698 51.948 51.3515 60.7593C52.3127 66.8471 56.6383 73.0951 58.5607 73.0951Z" fill="#FFB703"/>
<path d="M60.1629 65.5648C60.1629 65.5648 55.517 60.5984 50.5506 62.6811C45.5842 64.7638 49.5894 75.4976 54.3955 76.4588C59.2017 77.42 61.2844 73.0945 61.2844 73.0945L60.1629 65.5648Z" fill="#FFDAAC"/>
<path d="M51.0312 67.487C52.1527 66.686 53.9149 66.3656 55.3568 67.0064C56.1578 67.3268 56.7986 67.8075 57.2793 68.2881C57.7599 68.9289 58.2405 69.5697 58.5609 70.2105L59.2017 71.6524L57.7599 71.332C57.4395 71.332 57.1191 71.332 56.7987 71.332C56.4782 71.332 56.1578 71.4922 55.8374 71.6524C55.1966 71.9728 54.5558 72.4534 53.915 73.0942C54.0752 72.2932 54.5558 71.332 55.1966 70.6912C55.517 70.3707 55.9976 70.2105 56.4782 69.8901C56.9589 69.7299 57.4395 69.5697 57.9201 69.5697L57.1191 70.6912C56.7987 70.2105 56.4782 69.5697 56.1578 69.2493C55.8374 68.7687 55.3568 68.4483 54.8762 68.1279C53.7547 67.8075 52.4731 67.487 51.0312 67.487Z" fill="#F8BD8A"/>
<path d="M61.4445 141.342L60.4833 140.861C58.0802 139.74 57.119 136.856 58.2404 134.453L75.3824 99.5285C76.5038 97.1254 79.3875 96.1641 81.7906 97.2856L82.7519 97.7662C85.1549 98.8876 86.1162 101.771 84.9947 104.174L67.8527 139.099C66.7313 141.502 63.8476 142.464 61.4445 141.342Z" fill="#8ECAE6"/>
<path d="M96.85 152.877L96.3693 153.838C95.2479 156.241 92.3642 157.203 89.9611 156.081L60.4833 141.502C58.0802 140.381 57.119 137.497 58.2404 135.094L58.721 134.133C59.8425 131.73 62.7262 130.769 65.1293 131.89L94.6071 146.469C97.0102 147.59 97.9714 150.474 96.85 152.877Z" fill="#8ECAE6"/>
<g opacity="0.1">
<path opacity="0.1" d="M61.4445 141.342L60.4833 140.861C58.0802 139.74 57.119 136.856 58.2404 134.453L75.3824 99.5285C76.5038 97.1254 79.3875 96.1641 81.7906 97.2856L82.7519 97.7662C85.1549 98.8876 86.1162 101.771 84.9947 104.174L67.8527 139.099C66.7313 141.502 63.8476 142.464 61.4445 141.342Z" fill="#023047"/>
<path opacity="0.1" d="M96.85 152.877L96.3693 153.838C95.2479 156.241 92.3642 157.203 89.9611 156.081L60.4833 141.502C58.0802 140.381 57.119 137.497 58.2404 135.094L58.721 134.133C59.8425 131.73 62.7262 130.769 65.1293 131.89L94.6071 146.469C97.0102 147.59 97.9714 150.474 96.85 152.877Z" fill="#023047"/>
</g>
<path d="M104.54 147.751C101.816 147.27 99.2529 148.391 97.3305 150.314C96.0488 151.596 98.2917 153.198 99.4131 151.916C100.695 150.634 102.457 150.154 104.059 150.474C105.982 150.795 106.302 148.071 104.54 147.751Z" fill="#FFDAAC"/>
<path d="M91.7234 153.999C91.7234 153.999 91.5632 150.795 94.6071 148.552C94.6071 148.552 104.059 150.634 105.661 151.275C107.744 152.236 100.855 158.805 99.253 158.164C97.651 157.363 91.7234 153.999 91.7234 153.999Z" fill="#FFDAAC"/>
<path d="M103.739 160.407C103.098 157.683 101.176 155.761 98.6123 154.64C97.0102 153.999 96.2092 156.722 97.8112 157.203C99.4133 157.844 100.535 159.286 101.015 161.048C101.496 162.81 104.059 162.009 103.739 160.407Z" fill="#FFDAAC"/>
<path d="M107.584 159.446C106.462 156.883 104.219 155.281 101.496 154.8C99.7336 154.48 99.5734 157.203 101.336 157.524C103.098 157.844 104.54 158.965 105.181 160.567C105.982 162.17 108.385 161.048 107.584 159.446Z" fill="#FFDAAC"/>
<path d="M109.506 156.882C108.064 154.479 105.661 153.197 102.938 153.037C101.175 152.877 101.336 155.761 103.098 155.761C104.86 155.921 106.462 156.882 107.263 158.324C108.224 159.766 110.467 158.324 109.506 156.882Z" fill="#FFDAAC"/>
<path d="M110.147 153.679C108.224 151.596 105.661 150.795 102.938 151.116C101.175 151.276 101.816 153.999 103.578 153.839C105.341 153.679 106.943 154.32 108.224 155.601C109.346 156.883 111.268 154.96 110.147 153.679Z" fill="#FFDAAC"/>
<path d="M145.072 87.0327C145.072 87.0327 146.834 89.596 150.839 89.4358C150.839 89.4358 155.165 87.1929 157.247 84.3092C158.209 83.0276 156.927 82.2266 157.728 80.4643C158.529 78.3816 149.397 77.5806 148.436 79.0224C147.475 80.4643 145.072 87.0327 145.072 87.0327Z" fill="#FFDAAC"/>
<path d="M161.893 81.4258C160.131 83.5085 157.407 84.4697 154.684 84.1493C152.922 83.9891 153.563 81.2656 155.165 81.4258C156.927 81.586 158.529 80.785 159.811 79.5033C161.092 78.3819 163.015 80.1442 161.893 81.4258Z" fill="#FFDAAC"/>
<path d="M154.043 72.7738C154.684 75.4973 153.883 78.0606 152.121 80.1433C150.999 81.4249 149.077 79.5025 150.198 78.0606C151.32 76.779 151.64 75.0167 151.32 73.2544C150.999 71.6524 153.563 71.0116 154.043 72.7738Z" fill="#FFDAAC"/>
<path d="M157.087 73.5751C157.407 76.2986 156.286 78.8619 154.203 80.6242C152.922 81.7456 151.32 79.5027 152.601 78.3813C153.883 77.2599 154.524 75.4976 154.364 73.7353C154.203 72.1333 156.927 71.8129 157.087 73.5751Z" fill="#FFDAAC"/>
<path d="M161.893 76.9393C160.612 79.5025 158.369 80.9444 155.645 81.425C153.883 81.7454 153.723 79.0219 155.485 78.7015C157.247 78.3811 158.689 77.2597 159.33 75.6576C160.131 74.0556 162.694 75.3372 161.893 76.9393Z" fill="#FFDAAC"/>
<path d="M155.485 59.1568L163.335 61.3996C165.258 62.0405 166.219 64.1231 165.418 65.8854L158.209 81.9059C157.408 83.508 155.645 84.309 154.043 83.6682L147.635 81.2651C145.873 80.6243 145.072 78.7018 145.713 76.9396L151.64 61.0792C152.121 59.6374 153.723 58.6761 155.485 59.1568Z" fill="#FFB703"/>
<path d="M155.806 60.5983L161.253 62.2003C163.175 62.8411 164.296 65.084 163.495 67.0065L157.888 80.1433C157.087 81.9056 155.325 82.7066 153.563 82.0658L149.077 80.3036C147.315 79.6627 146.353 77.5801 147.154 75.6576L151.8 62.6809C152.281 61.0789 154.043 60.1177 155.806 60.5983Z" fill="#023047"/>
<path d="M146.193 83.5082C144.591 81.2653 144.11 78.5418 144.912 75.9785C145.392 74.3765 147.955 75.3377 147.475 77.1C146.994 78.8622 147.315 80.6245 148.436 81.9061C149.557 83.348 147.315 84.95 146.193 83.5082Z" fill="#FFDAAC"/>
<path d="M56.4781 62.8414C54.5556 58.5159 53.7546 53.5495 54.075 48.5831C54.2352 46.18 54.7158 43.6167 55.8373 41.2137C56.9587 38.8106 58.721 36.5677 60.4832 34.9656C64.0078 31.4411 68.6537 28.8778 73.4599 27.7564C78.2661 26.6349 83.3926 26.9554 87.8784 28.3972C83.0722 29.038 78.7467 29.8391 74.7415 31.6013C70.7364 33.3636 67.2119 35.7667 64.0078 38.6504C62.4057 40.2524 61.1241 41.5341 60.1628 43.2963C59.2016 45.0586 58.5608 47.1413 57.9199 49.2239C57.1189 53.5495 56.6383 58.0352 56.4781 62.8414Z" fill="#023047"/>
<path d="M56.6383 76.4587C54.075 88.3139 64.3282 93.9211 72.9793 99.0477C81.4702 104.174 90.2815 109.781 95.2479 118.753C98.6122 124.841 100.855 129.807 107.263 133.011C117.196 138.138 131.294 137.177 138.664 127.885C148.757 114.908 141.707 96.164 149.878 82.5465C150.359 81.9057 149.237 81.1046 148.757 81.9057C142.829 91.6782 144.751 104.495 142.509 115.228C138.824 132.37 121.682 140.06 106.302 130.929C99.5734 126.923 98.2918 120.195 93.9662 114.427C90.9223 110.422 87.0774 107.058 82.912 104.014C73.6201 97.2854 54.8761 91.3578 57.92 76.7791C58.0802 76.1383 56.7985 75.6576 56.6383 76.4587Z" fill="#023047"/>
<path d="M109.506 71.6525C113.351 82.3863 106.783 89.916 103.418 99.3681C100.214 108.34 99.8939 119.234 101.496 128.526C101.656 129.327 102.938 129.006 102.778 128.205C100.375 114.588 103.258 102.412 109.186 90.2364C112.07 84.1486 113.031 77.9005 110.788 71.3321C110.467 70.3709 109.186 70.8515 109.506 71.6525Z" fill="#023047"/>
<path d="M66.5712 68.1281C66.5712 73.7353 62.0854 78.2211 56.4782 78.2211C50.871 78.2211 46.3853 73.7353 46.3853 68.1281C46.3853 62.5209 50.871 58.0352 56.4782 58.0352C62.0854 58.0352 66.5712 62.5209 66.5712 68.1281Z" fill="#8ECAE6"/>
<path d="M63.6875 68.1277C63.6875 72.1328 60.4834 75.337 56.4783 75.337C52.4732 75.337 49.269 72.1328 49.269 68.1277C49.269 64.1226 52.4732 60.9185 56.4783 60.9185C60.4834 60.9185 63.6875 64.1226 63.6875 68.1277Z" fill="#023047"/>
</svg>
