<svg width="300" height="40" viewBox="0 0 300 40" fill="none" xmlns="http://www.w3.org/2000/svg">
<path d="M81.3301 35.3546C80.4755 34.4738 80.0767 33.1525 80.0767 31.3909C80.0767 30.6569 80.1906 29.7174 80.4185 28.5136L84.5776 8.46029C84.834 7.25651 85.8025 6.31697 86.9705 6.17017L87.3123 6.11144C89.2779 5.8472 90.9017 7.63819 90.4743 9.63472L86.3722 29.365C86.2583 29.8054 86.2013 30.2752 86.2013 30.7743C86.2013 31.3616 86.3438 31.7726 86.6001 32.0368C86.8565 32.3011 87.3123 32.4185 87.939 32.4185C88.7651 32.4185 89.5343 32.0662 90.2464 31.3322C90.8447 30.745 91.3005 29.9816 91.6138 29.1008C91.7278 28.7778 92.0411 28.5429 92.383 28.5429C92.9812 28.5429 93.38 29.1595 93.1521 29.7174C92.1551 32.2424 90.9586 34.004 89.5058 35.0023C87.8536 36.1473 86.2013 36.7052 84.5776 36.7052C83.2672 36.6758 82.1562 36.2354 81.3301 35.3546Z" fill="#219EBC"/>
<path d="M93.0094 34.9728C91.8414 33.8571 91.2432 32.0661 91.2432 29.6585C91.2432 27.6327 91.642 25.4013 92.4111 22.9643C93.1803 20.5274 94.4337 18.4134 96.1714 16.6518C97.9091 14.8902 100.103 13.98 102.809 13.98C105.942 13.98 107.509 15.3893 107.509 18.2079C107.509 19.8521 107.053 21.3789 106.142 22.7588C105.23 24.1387 104.005 25.2544 102.495 26.0765C100.986 26.8986 99.3619 27.3978 97.6527 27.5152C97.5957 28.396 97.5673 28.9832 97.5673 29.2768C97.5673 30.7155 97.7951 31.6844 98.2794 32.2129C98.7637 32.7414 99.5328 32.9763 100.644 32.9763C102.182 32.9763 103.493 32.624 104.604 31.8606C105.686 31.1266 106.911 30.0109 108.221 28.5135H109.674C106.512 33.9452 102.581 36.6757 97.9091 36.6757C95.8011 36.6757 94.1773 36.0885 93.0094 34.9728ZM101.014 24.2562C101.954 23.5515 102.723 22.6707 103.322 21.5844C103.891 20.498 104.205 19.353 104.205 18.1492C104.205 16.9454 103.834 16.3582 103.122 16.3582C102.097 16.3582 101.1 17.2684 100.103 19.1181C99.134 20.9678 98.4219 23.0818 97.9946 25.4306C99.0486 25.3425 100.074 24.9608 101.014 24.2562Z" fill="#219EBC"/>
<path d="M119.816 35.2371C118.99 34.2975 118.591 33.0938 118.591 31.6845C118.591 31.0679 118.648 30.3632 118.819 29.5999C118.961 28.8365 119.104 28.0731 119.274 27.3391C119.417 26.6051 119.531 26.1353 119.588 25.9298C119.816 24.9022 120.015 23.9039 120.243 22.9056C120.442 21.9074 120.556 21.0853 120.556 20.4687C120.556 18.9713 120.044 18.2079 119.018 18.2079C118.277 18.2079 117.622 18.5896 117.052 19.3237C116.483 20.0577 116.027 21.0559 115.685 22.2597L113.264 34.0627C112.979 35.4132 111.811 36.3822 110.472 36.3822H110.13C108.307 36.3822 106.968 34.6499 107.338 32.8295L110.671 16.6812C110.956 15.3306 112.124 14.3617 113.463 14.3617H115.03C116.198 14.3617 117.081 15.4774 116.825 16.6518C118.249 15.0076 119.901 14.1855 121.838 14.1855C123.291 14.1855 124.431 14.5966 125.285 15.4187C126.14 16.2408 126.567 17.4739 126.567 19.1475C126.567 19.9989 126.453 20.9385 126.254 21.9955C126.054 23.0524 125.769 24.3149 125.399 25.8123C125.171 26.7225 124.972 27.6033 124.772 28.4842C124.573 29.365 124.488 30.0403 124.488 30.5394C124.488 31.1266 124.63 31.5964 124.886 31.9193C125.143 32.2423 125.57 32.3891 126.197 32.3891C127.051 32.3891 127.735 32.0661 128.248 31.4496C128.761 30.833 129.273 29.8347 129.786 28.5135H131.581C130.527 31.7432 129.302 33.9159 127.934 35.0022C126.539 36.1179 125.114 36.6464 123.633 36.6464C121.895 36.6758 120.642 36.1766 119.816 35.2371Z" fill="#219EBC"/>
<path d="M130.869 34.9435C129.786 33.7985 129.245 32.0075 129.245 29.5706C129.245 27.3979 129.672 25.1077 130.498 22.7295C131.324 20.3513 132.606 18.3255 134.259 16.6519C135.939 15.0077 137.905 14.1562 140.212 14.1562C141.38 14.1562 142.235 14.3618 142.805 14.7728C143.374 15.1839 143.659 15.7417 143.659 16.3877V16.5638L145.34 8.46029C145.596 7.25651 146.565 6.31697 147.733 6.17017L148.046 6.11144C150.012 5.8472 151.636 7.63819 151.208 9.63472L147.192 29.365C147.078 29.8054 147.021 30.2752 147.021 30.7743C147.021 31.3616 147.163 31.7726 147.42 32.0368C147.676 32.3011 148.132 32.4185 148.758 32.4185C149.556 32.4185 150.24 32.0662 150.838 31.3616C151.408 30.6569 151.892 29.7174 152.234 28.5429H154.028C152.291 33.7985 149.414 36.4409 145.454 36.4409C144.286 36.4409 143.346 36.118 142.605 35.472C141.893 34.8261 141.437 33.8866 141.266 32.6534C140.526 33.8278 139.643 34.7967 138.589 35.5601C137.535 36.3235 136.338 36.7052 134.942 36.7052C133.29 36.6758 131.951 36.0886 130.869 34.9435ZM139.785 31.4203C140.469 30.7743 140.953 29.8642 141.209 28.7485V28.5136L143.317 18.4135C143.061 17.3859 142.463 16.8574 141.58 16.8574C140.44 16.8574 139.415 17.5327 138.503 18.9127C137.592 20.2632 136.879 21.9368 136.367 23.8452C135.854 25.783 135.597 27.4566 135.597 28.9246C135.597 30.3927 135.797 31.3322 136.224 31.7432C136.623 32.1543 137.136 32.3598 137.734 32.3598C138.389 32.3892 139.073 32.0662 139.785 31.4203Z" fill="#219EBC"/>
<path d="M153.459 34.914C152.234 33.7983 151.607 32.0367 151.607 29.6291C151.607 27.6032 152.006 25.3718 152.775 22.9643C153.544 20.5273 154.798 18.4427 156.535 16.6811C158.273 14.9195 160.495 14.0093 163.201 14.0093C166.563 14.0093 168.386 16.0058 168.642 19.9401C169.269 19.7933 169.81 19.441 170.323 18.8538C170.807 18.2666 171.263 17.6206 171.69 16.8866C172.317 16.8866 172.716 17.5913 172.431 18.1491C171.918 19.1474 171.434 19.9695 171.007 20.6154C170.409 21.5256 169.611 22.2302 168.642 22.7881C168.471 25.548 167.93 27.9849 166.99 30.0695C166.05 32.1541 164.854 33.769 163.372 34.8847C161.891 36.0297 160.267 36.5876 158.444 36.5876C156.364 36.5876 154.684 36.0297 153.459 34.914ZM163.116 29.9814C164.027 28.2198 164.654 26.0471 164.996 23.4634C164.312 23.1991 163.97 22.5532 163.97 21.4669C163.97 20.3218 164.369 19.5584 165.167 19.1767C165.11 18.2372 164.968 17.5913 164.711 17.2096C164.455 16.8573 164.084 16.6517 163.543 16.6517C162.603 16.6517 161.692 17.3564 160.837 18.7363C159.982 20.1456 159.299 21.8192 158.757 23.7864C158.216 25.7829 157.96 27.5152 157.96 29.0125C157.96 30.4219 158.102 31.3614 158.416 31.8605C158.729 32.3303 159.299 32.5945 160.125 32.5945C161.236 32.6239 162.204 31.7431 163.116 29.9814Z" fill="#219EBC"/>
<path d="M204.478 35.2368C203.652 34.2973 203.254 33.0935 203.254 31.6842C203.254 31.0676 203.311 30.3629 203.481 29.5996C203.624 28.8362 203.766 28.0728 203.937 27.3388C204.08 26.6048 204.194 26.135 204.251 25.9295C204.478 24.9019 204.678 23.9036 204.906 22.9053C205.105 21.9071 205.191 21.085 205.191 20.4684C205.191 18.971 204.678 18.2077 203.652 18.2077C202.912 18.2077 202.257 18.5893 201.687 19.3234C201.117 20.0574 200.661 21.0556 200.319 22.2594L197.898 34.0624C197.613 35.413 196.445 36.3819 195.106 36.3819H194.764C192.941 36.3819 191.602 34.6496 191.973 32.8292L194.366 21.1731C194.451 20.8207 194.508 20.4684 194.508 20.0574C194.508 18.7655 194.081 18.1196 193.226 18.1196C192.429 18.1196 191.745 18.5013 191.147 19.2353C190.548 19.9693 190.093 20.9675 189.751 22.2007L187.329 34.0037C187.045 35.3542 185.877 36.3231 184.538 36.3231H184.196C182.373 36.3231 181.034 34.5909 181.404 32.7705L184.737 16.6222C185.022 15.2716 186.19 14.3027 187.529 14.3027H189.096C190.264 14.3027 191.147 15.4184 190.89 16.5928C192.343 14.9193 194.081 14.0972 196.103 14.0972C198.61 14.0972 200.063 15.3597 200.49 17.8847C202.057 15.389 204.051 14.1265 206.444 14.1265C207.897 14.1265 209.036 14.5376 209.891 15.3597C210.746 16.1818 211.173 17.4149 211.173 19.0885C211.173 19.9399 211.059 20.8795 210.888 21.9364C210.689 22.9934 210.404 24.2559 210.033 25.7533C209.806 26.6635 209.606 27.5443 209.407 28.4251C209.207 29.306 209.122 29.9812 209.122 30.4804C209.122 31.0676 209.236 31.5374 209.492 31.8603C209.749 32.1833 210.176 32.3301 210.831 32.3301C211.686 32.3301 212.369 32.0071 212.882 31.3906C213.395 30.774 213.908 29.7757 214.42 28.4545H216.215C215.161 31.6842 213.936 33.8568 212.569 34.9432C211.173 36.0589 209.749 36.5874 208.267 36.5874C206.558 36.6755 205.276 36.1763 204.478 35.2368Z" fill="#219EBC"/>
<path d="M215.361 35.3545C214.506 34.4737 214.107 33.1525 214.107 31.3909C214.107 30.6569 214.221 29.7173 214.449 28.5135L216.87 16.7106C217.155 15.36 218.323 14.3911 219.662 14.3911H220.004C221.827 14.3911 223.166 16.1234 222.796 17.9437L220.46 29.365C220.374 29.8054 220.317 30.2164 220.317 30.5981C220.317 31.8019 220.745 32.3891 221.599 32.3891C222.397 32.3891 223.081 32.0368 223.65 31.3615C224.22 30.6862 224.676 29.7173 225.018 28.5135L227.439 16.7106C227.724 15.36 228.892 14.3911 230.231 14.3911H230.573C232.396 14.3911 233.735 16.1234 233.364 17.9437L231.028 29.365C230.914 29.8054 230.857 30.2752 230.857 30.7743C230.857 31.3615 231 31.7726 231.256 32.0368C231.513 32.301 231.968 32.4185 232.595 32.4185C233.393 32.4185 234.076 32.0662 234.675 31.3615C235.244 30.6569 235.729 29.7173 236.071 28.5429H237.865C236.811 31.7138 235.501 33.8572 233.963 35.0022C232.396 36.1473 230.857 36.7051 229.291 36.7051C228.066 36.7051 227.097 36.3528 226.357 35.6482C225.644 34.9435 225.189 33.9159 225.046 32.5359C224.078 34.1508 223.052 35.2665 221.998 35.8537C220.916 36.4409 219.833 36.7345 218.722 36.7345C217.298 36.6758 216.215 36.2354 215.361 35.3545ZM230.345 3.38086C231.513 3.38086 232.225 4.70209 231.598 5.72971L227.895 11.7193C226.414 11.7193 225.445 10.1338 226.072 8.75385L227.781 5.05441C228.237 4.02679 229.234 3.38086 230.345 3.38086Z" fill="#219EBC"/>
<path d="M237.438 35.8535C236.498 35.325 235.814 34.6204 235.33 33.7396C234.874 32.8881 234.646 31.9779 234.646 31.0384C234.646 30.0695 234.874 29.218 235.301 28.5134C235.757 27.8087 236.27 27.2802 236.897 26.9573C238.008 24.902 238.976 22.8174 239.802 20.7328C240.429 19.1474 241.027 17.4444 241.597 15.6828C241.939 14.6258 242.85 13.8331 243.933 13.6863L245.386 13.4808C247.038 13.2459 248.519 14.5377 248.605 16.2407C248.747 19.0886 248.947 22.0834 249.203 25.2544C249.345 27.016 249.431 28.3079 249.431 29.1006C249.431 29.7759 249.374 30.3337 249.26 30.7741C250.599 29.9814 251.624 29.2474 252.337 28.5721H254.131C252.308 30.7448 250.115 32.5651 247.608 34.0919C246.782 35.0021 245.756 35.6774 244.56 36.0884C243.335 36.4995 242.138 36.7343 240.913 36.7343C239.517 36.6756 238.378 36.382 237.438 35.8535ZM242.167 32.2128C242.879 31.5669 243.249 30.5393 243.249 29.1006C243.249 28.2198 243.164 26.9866 242.993 25.4012C242.708 22.0541 242.509 19.8226 242.423 18.6482C241.739 20.9677 240.571 23.757 238.948 26.9866C239.603 27.339 239.945 27.8674 239.945 28.5427C239.945 29.1006 239.774 29.5997 239.404 30.0401C239.033 30.4805 238.606 30.7154 238.065 30.7154C237.466 30.7154 237.068 30.5393 236.925 30.1282C236.925 31.1852 237.125 31.9779 237.552 32.4771C237.951 32.9762 238.634 33.2111 239.546 33.2111C240.572 33.1817 241.455 32.8587 242.167 32.2128Z" fill="#219EBC"/>
<path d="M253.277 35.3544C252.422 34.4736 252.023 33.1524 252.023 31.3907C252.023 30.6567 252.137 29.7172 252.365 28.5134L254.786 16.7104C255.071 15.3598 256.239 14.3909 257.578 14.3909H257.92C259.743 14.3909 261.082 16.1232 260.712 17.9436L258.376 29.3648C258.262 29.8052 258.205 30.275 258.205 30.7741C258.205 31.3614 258.347 31.7724 258.604 32.0366C258.86 32.3009 259.316 32.4183 259.943 32.4183C260.769 32.4183 261.538 32.066 262.25 31.332C262.962 30.6273 263.475 29.6878 263.788 28.5427H265.583C264.529 31.7137 263.162 33.857 261.509 35.0021C259.857 36.1471 258.233 36.705 256.581 36.705C255.214 36.6756 254.103 36.2352 253.277 35.3544ZM257.094 10.9851C256.467 10.3392 256.154 9.57579 256.125 8.69498C256.097 7.72608 256.439 6.75718 257.094 6.05252C257.749 5.37723 258.547 5.0249 259.487 5.0249C260.427 5.0249 261.224 5.37723 261.908 6.05252C262.563 6.75718 262.905 7.57927 262.905 8.54817C262.905 9.51707 262.563 10.3392 261.908 11.0145C261.224 11.6898 260.284 12.0714 259.344 12.0127C258.461 11.954 257.721 11.631 257.094 10.9851Z" fill="#219EBC"/>
<path d="M264.956 34.9728C263.788 33.8571 263.19 32.0661 263.19 29.6585C263.19 27.6327 263.589 25.4012 264.358 22.9643C265.127 20.5274 266.38 18.4134 268.118 16.6518C269.827 14.8902 272.021 13.98 274.67 13.98C276.379 13.98 277.604 14.3617 278.316 15.125C279.057 15.8884 279.399 16.8573 279.399 18.0317C279.399 19.0594 279.171 19.8521 278.744 20.4099C278.316 20.9678 277.775 21.2614 277.12 21.2614C277.12 21.2614 277.12 21.2614 277.092 21.2614C276.322 21.2614 275.753 20.4687 275.924 19.6759C276.066 19.1181 276.123 18.619 276.123 18.1198C276.123 17.562 276.009 17.1216 275.81 16.7986C275.61 16.4756 275.297 16.3288 274.927 16.3288C274.072 16.3288 273.217 17.0628 272.363 18.5015C271.508 19.9402 270.796 21.7018 270.255 23.7277C269.713 25.7829 269.457 27.6327 269.457 29.2768C269.457 30.7155 269.685 31.6844 270.169 32.2129C270.654 32.7414 271.423 32.9763 272.534 32.9763C274.072 32.9763 275.382 32.624 276.493 31.8606C277.547 31.1559 278.687 30.1283 279.912 28.719C280.026 28.5722 280.197 28.5135 280.396 28.5135C280.909 28.5135 281.222 29.1007 280.937 29.5411C277.889 34.2975 274.186 36.6464 269.827 36.6464C267.748 36.6757 266.124 36.0885 264.956 34.9728Z" fill="#219EBC"/>
<path d="M281.222 34.9436C280.14 33.7985 279.598 32.0075 279.598 29.5706C279.598 27.3979 280.026 25.1078 280.852 22.7295C281.678 20.3513 282.96 18.3255 284.612 16.6519C286.293 15.0077 288.258 14.1562 290.566 14.1562C291.734 14.1562 292.588 14.3618 293.187 14.7728C293.756 15.1839 294.041 15.7417 294.041 16.3877V16.7106C294.326 15.36 295.466 14.3618 296.833 14.3618H297.146C298.969 14.3618 300.308 16.094 299.938 17.9144L297.602 29.3357C297.488 29.7761 297.431 30.2459 297.431 30.745C297.431 31.3322 297.574 31.7432 297.83 32.0075C298.086 32.2717 298.542 32.3892 299.169 32.3892C299.568 32.3892 299.853 32.8296 299.71 33.2113C299.226 34.327 298.77 35.1491 298.314 35.6776C297.744 36.3529 296.918 36.6758 295.836 36.6758C294.668 36.6758 293.728 36.3235 292.987 35.5895C292.275 34.8848 291.819 33.8572 291.648 32.5653C289.911 35.2959 287.774 36.6465 285.296 36.6465C283.672 36.6758 282.305 36.0886 281.222 34.9436ZM290.195 31.3616C290.879 30.6863 291.363 29.7174 291.62 28.5136L293.671 18.5603C293.671 18.1787 293.528 17.797 293.244 17.4446C292.959 17.0923 292.503 16.8868 291.905 16.8868C290.765 16.8868 289.74 17.5621 288.828 18.942C287.917 20.2926 287.204 21.9662 286.692 23.8746C286.179 25.8124 285.922 27.486 285.922 28.954C285.922 30.422 286.122 31.3616 286.549 31.7726C286.948 32.1837 287.461 32.3892 288.059 32.3892C288.771 32.3892 289.483 32.0369 290.195 31.3616Z" fill="#219EBC"/>
<path d="M0 4.3498V37.4392C0 39.1127 1.62375 40.2872 3.16204 39.6706C7.74843 37.8502 16.9212 35.5895 28.2305 39.8468C29.7403 40.434 31.364 39.2595 31.364 37.586V4.3498C31.364 3.29282 30.6803 2.35328 29.7118 2.05967C25.6097 0.767805 14.4428 -1.84529 1.65224 2.05967C0.683685 2.35328 0 3.29282 0 4.3498Z" fill="#219EBC"/>
<path d="M35.2097 4.3498V37.4392C35.2097 39.1127 36.8335 40.2872 38.3718 39.6706C42.9581 37.8502 52.1309 35.5895 63.4402 39.8468C64.95 40.434 66.5737 39.2595 66.5737 37.586V4.3498C66.5737 3.29282 65.8901 2.35328 64.9215 2.05967C60.8194 0.767805 49.6526 -1.84529 36.862 2.05967C35.8934 2.35328 35.2097 3.29282 35.2097 4.3498Z" fill="#219EBC"/>
<path d="M20.5961 25.4011C19.1717 26.1351 17.6335 25.9002 17.1492 24.902C16.6649 23.9037 17.4056 22.4944 18.8299 21.7604C19.3712 21.4961 19.9124 21.3493 20.3967 21.3493C20.5391 21.3493 20.6815 21.2025 20.6815 21.0557V16.0644C20.6815 15.947 20.5676 15.8295 20.4537 15.8295H12.9331C12.8192 15.8295 12.7052 15.947 12.7052 16.0644V22.5531C12.7052 22.5531 12.7052 22.5825 12.7337 22.5825C13.218 23.5807 12.4773 24.99 11.053 25.7241C9.62865 26.4581 8.09036 26.2232 7.60608 25.2249C7.12181 24.2267 7.86246 22.8174 9.28681 22.0833C9.79957 21.8191 10.3408 21.6723 10.8251 21.6723C10.9675 21.6723 11.11 21.5255 11.11 21.3787V13.1871C11.11 12.8054 11.4233 12.4824 11.7937 12.4824H21.6786C22.0489 12.4824 22.3623 12.8054 22.3623 13.1871V22.2595C22.3623 22.2889 22.3623 22.3476 22.3908 22.3769C22.6756 23.3752 21.935 24.6964 20.5961 25.4011Z" fill="white"/>
<path d="M54.3244 24.1975C52.9 24.9315 51.3617 24.6966 50.8775 23.6983C50.3932 22.7001 51.1338 21.2908 52.5582 20.5568C53.0994 20.2925 53.6407 20.1457 54.125 20.1457C54.2674 20.1457 54.4098 19.9989 54.4098 19.8521V14.8608C54.4098 14.7434 54.2959 14.6259 54.1819 14.6259H46.6614C46.5474 14.6259 46.4335 14.7434 46.4335 14.8608V21.3495C46.4335 21.3495 46.4335 21.3789 46.462 21.3789C46.9463 22.3771 46.2056 23.7864 44.7813 24.5204C43.3569 25.2544 41.8186 25.0196 41.3344 24.0213C40.8501 23.023 41.5907 21.6137 43.0151 20.8797C43.5278 20.6155 44.0691 20.4687 44.5534 20.4687C44.6958 20.4687 44.8382 20.3219 44.8382 20.1751V11.9835C44.8382 11.6018 45.1516 11.2788 45.5219 11.2788H55.4069C55.7772 11.2788 56.0905 11.6018 56.0905 11.9835V21.0559C56.0905 21.0852 56.0905 21.144 56.119 21.1733C56.4324 22.1716 55.6917 23.4928 54.3244 24.1975Z" fill="white"/>
</svg>
